<svg data-v-fde0c5aa="" xmlns="http://www.w3.org/2000/svg" viewBox="0 0 300 300" class="iconLeft"><!----><defs data-v-fde0c5aa=""><!----></defs><rect data-v-fde0c5aa="" fill="transparent" x="0" y="0" width="300px" height="300px" class="logo-background-square"></rect><defs data-v-fde0c5aa=""><!----></defs><g data-v-fde0c5aa="" id="0076206e-a2f9-4434-a5c5-f3304ab8f264" fill="#000000" transform="matrix(0.8501209924151515,0,0,0.8501209924151515,76.60340766422917,131.32709186651374)"><path d="M11.34 27.47L11.06 28.03L8.46 28.03L5.38 23.06L4.72 22.58L4.93 22.16L5.71 22.16L5.71 22.16Q6.66 22.16 7.22 21.68L7.22 21.68L7.22 21.68Q7.77 21.20 7.77 20.36L7.77 20.36L7.77 20.36Q7.77 19.25 7.15 18.52L7.15 18.52L7.15 18.52Q6.54 17.78 5.36 17.78L5.36 17.78L5.36 17.78Q4.58 17.78 3.92 18.24L3.92 18.24L3.92 26.96L5.39 27.47L5.11 28.03L0.85 28.03L0.85 27.59L2.17 26.56L2.17 18.05L0.71 17.57L0.99 17.01L2.62 17.01L2.62 17.01Q3.89 17.01 5.12 16.93L5.12 16.93L5.12 16.93Q6.02 16.87 6.45 16.87L6.45 16.87L6.45 16.87Q7.39 16.87 8.13 17.25L8.13 17.25L8.13 17.25Q8.86 17.63 9.26 18.27L9.26 18.27L9.26 18.27Q9.66 18.91 9.66 19.68L9.66 19.68L9.66 19.68Q9.66 20.38 9.23 21.02L9.23 21.02L9.23 21.02Q8.79 21.66 8.09 22.13L8.09 22.13L8.09 22.13Q7.38 22.60 6.59 22.83L6.59 22.83L7.50 23.14L9.67 26.64L11.34 27.47ZM19.35 26.07L16.87 28.03L16.87 28.03Q16.31 28.14 15.53 28.14L15.53 28.14L15.53 28.14Q14.60 28.14 13.87 27.66L13.87 27.66L13.87 27.66Q13.13 27.17 12.72 26.35L12.72 26.35L12.72 26.35Q12.31 25.52 12.31 24.53L12.31 24.53L12.31 24.53Q12.31 23.45 12.96 22.50L12.96 22.50L12.96 22.50Q13.62 21.56 14.61 20.99L14.61 20.99L14.61 20.99Q15.60 20.43 16.52 20.43L16.52 20.43L16.52 20.43Q17.85 20.43 18.59 21.48L18.59 21.48L18.59 21.48Q19.32 22.53 19.32 24.25L19.32 24.25L14.14 24.25L14.14 24.25Q14.22 25.44 14.79 26.19L14.79 26.19L14.79 26.19Q15.36 26.95 16.34 26.95L16.34 26.95L16.34 26.95Q17.25 26.95 18.93 25.54L18.93 25.54L19.35 26.07ZM15.71 21.60L15.71 21.60Q14.20 21.60 14.13 23.67L14.13 23.67L17.40 23.67L17.40 23.67Q17.28 22.92 17.14 22.52L17.14 22.52L17.14 22.52Q17.01 22.12 16.68 21.86L16.68 21.86L16.68 21.86Q16.35 21.60 15.71 21.60L15.71 21.60ZM25.61 26.49L25.61 26.49Q25.61 26.10 25.17 25.77L25.17 25.77L25.17 25.77Q24.74 25.44 23.84 24.98L23.84 24.98L23.84 24.98Q23.11 24.60 22.67 24.32L22.67 24.32L22.67 24.32Q22.22 24.04 21.90 23.67L21.90 23.67L21.90 23.67Q21.59 23.30 21.59 22.86L21.59 22.86L21.59 22.86Q21.59 22.36 22.01 21.78L22.01 21.78L22.01 21.78Q22.43 21.21 23.04 20.82L23.04 20.82L23.04 20.82Q23.66 20.43 24.19 20.43L24.19 20.43L24.19 20.43Q24.84 20.43 25.68 20.59L25.68 20.59L25.68 20.59Q26.53 20.75 26.91 20.94L26.91 20.94L26.91 23.10L26.38 23.10L26.38 23.10Q25.93 22.23 25.34 21.75L25.34 21.75L25.34 21.75Q24.75 21.27 24.14 21.27L24.14 21.27L24.14 21.27Q23.70 21.27 23.44 21.50L23.44 21.50L23.44 21.50Q23.17 21.73 23.17 22.08L23.17 22.08L23.17 22.08Q23.17 22.51 23.63 22.86L23.63 22.86L23.63 22.86Q24.08 23.20 25.00 23.66L25.00 23.66L25.00 23.66Q25.72 24.02 26.15 24.29L26.15 24.29L26.15 24.29Q26.59 24.56 26.89 24.91L26.89 24.91L26.89 24.91Q27.19 25.27 27.19 25.70L27.19 25.70L27.19 25.70Q27.19 26.22 26.75 26.79L26.75 26.79L26.75 26.79Q26.31 27.36 25.67 27.75L25.67 27.75L25.67 27.75Q25.03 28.14 24.50 28.14L24.50 28.14L24.50 28.14Q23.81 28.14 22.87 27.98L22.87 27.98L22.87 27.98Q21.92 27.82 21.52 27.62L21.52 27.62L21.52 25.47L22.05 25.47L22.05 25.47Q22.54 26.33 23.21 26.82L23.21 26.82L23.21 26.82Q23.88 27.30 24.57 27.30L24.57 27.30L24.57 27.30Q25.03 27.30 25.32 27.06L25.32 27.06L25.32 27.06Q25.61 26.82 25.61 26.49L25.61 26.49ZM33.35 20.43L33.35 20.43Q34.27 20.43 35.01 20.91L35.01 20.91L35.01 20.91Q35.74 21.39 36.16 22.22L36.16 22.22L36.16 22.22Q36.57 23.04 36.57 24.04L36.57 24.04L36.57 24.04Q36.57 25.12 35.91 26.06L35.91 26.06L35.91 26.06Q35.25 27.01 34.27 27.57L34.27 27.57L34.27 27.57Q33.28 28.14 32.35 28.14L32.35 28.14L32.35 28.14Q31.43 28.14 30.70 27.66L30.70 27.66L30.70 27.66Q29.96 27.17 29.55 26.35L29.55 26.35L29.55 26.35Q29.13 25.52 29.13 24.53L29.13 24.53L29.13 24.53Q29.13 23.45 29.79 22.50L29.79 22.50L29.79 22.50Q30.45 21.56 31.44 20.99L31.44 20.99L31.44 20.99Q32.42 20.43 33.35 20.43L33.35 20.43ZM32.54 21.60L32.54 21.60Q30.95 21.60 30.95 23.86L30.95 23.86L30.95 23.86Q30.95 25.19 31.53 26.07L31.53 26.07L31.53 26.07Q32.10 26.96 33.17 26.96L33.17 26.96L33.17 26.96Q34.75 26.96 34.75 24.70L34.75 24.70L34.75 24.70Q34.75 23.38 34.17 22.49L34.17 22.49L34.17 22.49Q33.60 21.60 32.54 21.60L32.54 21.60ZM46.56 27.44L46.28 28L43.62 28L43.62 26.54L41.85 28.03L41.85 28.03Q41.55 28.14 41.08 28.14L41.08 28.14L41.08 28.14Q40.12 28.14 39.56 27.56L39.56 27.56L39.56 27.56Q39.00 26.98 39.00 25.98L39.00 25.98L39.00 22.64L37.76 21.91L37.76 21.48L40.15 20.30L40.68 20.30L40.68 25.28L40.68 25.28Q40.68 26.05 40.92 26.36L40.92 26.36L40.92 26.36Q41.16 26.67 41.78 26.67L41.78 26.67L41.78 26.67Q42.21 26.67 42.63 26.51L42.63 26.51L42.63 26.51Q43.05 26.35 43.62 25.87L43.62 25.87L43.62 22.64L42.38 21.91L42.38 21.48L44.77 20.30L45.30 20.30L45.30 26.95L46.56 27.44ZM52.88 20.44L52.88 20.44Q53.34 20.44 53.69 20.69L53.69 20.69L53.69 20.69Q54.04 20.94 54.24 21.39L54.24 21.39L53.31 22.55L52.78 22.55L52.78 22.55Q52.72 22.20 52.58 22.06L52.58 22.06L52.58 22.06Q52.43 21.91 52.18 21.91L52.18 21.91L52.18 21.91Q51.87 21.91 51.53 22.07L51.53 22.07L51.53 22.07Q51.18 22.23 50.75 22.68L50.75 22.68L50.75 26.85L52.71 27.45L52.43 28.01L47.82 28.01L47.82 27.58L49.07 26.60L49.07 22.64L47.82 21.91L47.82 21.48L50.22 20.30L50.65 22.02L52.11 20.54L52.11 20.54Q52.40 20.43 52.88 20.43L52.88 20.43L52.88 20.44ZM59.23 20.43L59.23 20.43Q59.81 20.43 60.57 20.59L60.57 20.59L60.57 20.59Q61.33 20.75 61.67 20.94L61.67 20.94L61.67 23.10L61.14 23.10L61.14 23.10Q60.59 22.40 59.88 22.00L59.88 22.00L59.88 22.00Q59.18 21.60 58.42 21.60L58.42 21.60L58.42 21.60Q57.78 21.60 57.45 22.18L57.45 22.18L57.45 22.18Q57.12 22.75 57.12 23.86L57.12 23.86L57.12 23.86Q57.12 25.17 57.69 26.06L57.69 26.06L57.69 26.06Q58.27 26.95 59.33 26.95L59.33 26.95L59.33 26.95Q60.13 26.95 61.60 25.80L61.60 25.80L62.02 26.33L59.86 28.03L59.86 28.03Q59.30 28.14 58.52 28.14L58.52 28.14L58.52 28.14Q57.60 28.14 56.86 27.66L56.86 27.66L56.86 27.66Q56.13 27.17 55.71 26.35L55.71 26.35L55.71 26.35Q55.30 25.52 55.30 24.53L55.30 24.53L55.30 24.53Q55.30 23.45 55.91 22.50L55.91 22.50L55.91 22.50Q56.52 21.55 57.44 20.99L57.44 20.99L57.44 20.99Q58.37 20.43 59.23 20.43L59.23 20.43ZM70.92 26.07L68.45 28.03L68.45 28.03Q67.89 28.14 67.10 28.14L67.10 28.14L67.10 28.14Q66.18 28.14 65.44 27.66L65.44 27.66L65.44 27.66Q64.71 27.17 64.30 26.35L64.30 26.35L64.30 26.35Q63.88 25.52 63.88 24.53L63.88 24.53L63.88 24.53Q63.88 23.45 64.54 22.50L64.54 22.50L64.54 22.50Q65.20 21.56 66.19 20.99L66.19 20.99L66.19 20.99Q67.17 20.43 68.10 20.43L68.10 20.43L68.10 20.43Q69.43 20.43 70.16 21.48L70.16 21.48L70.16 21.48Q70.90 22.53 70.90 24.25L70.90 24.25L65.72 24.25L65.72 24.25Q65.80 25.44 66.37 26.19L66.37 26.19L66.37 26.19Q66.93 26.95 67.91 26.95L67.91 26.95L67.91 26.95Q68.82 26.95 70.50 25.54L70.50 25.54L70.92 26.07ZM67.28 21.60L67.28 21.60Q65.77 21.60 65.70 23.67L65.70 23.67L68.98 23.67L68.98 23.67Q68.85 22.92 68.72 22.52L68.72 22.52L68.72 22.52Q68.59 22.12 68.26 21.86L68.26 21.86L68.26 21.86Q67.93 21.60 67.28 21.60L67.28 21.60ZM87.15 27.47L86.87 28.03L84.27 28.03L81.19 23.06L80.53 22.58L80.74 22.16L81.52 22.16L81.52 22.16Q82.47 22.16 83.03 21.68L83.03 21.68L83.03 21.68Q83.58 21.20 83.58 20.36L83.58 20.36L83.58 20.36Q83.58 19.25 82.96 18.52L82.96 18.52L82.96 18.52Q82.35 17.78 81.17 17.78L81.17 17.78L81.17 17.78Q80.39 17.78 79.73 18.24L79.73 18.24L79.73 26.96L81.20 27.47L80.92 28.03L76.66 28.03L76.66 27.59L77.98 26.56L77.98 18.05L76.52 17.57L76.80 17.01L78.43 17.01L78.43 17.01Q79.70 17.01 80.93 16.93L80.93 16.93L80.93 16.93Q81.83 16.87 82.26 16.87L82.26 16.87L82.26 16.87Q83.20 16.87 83.94 17.25L83.94 17.25L83.94 17.25Q84.67 17.63 85.07 18.27L85.07 18.27L85.07 18.27Q85.47 18.91 85.47 19.68L85.47 19.68L85.47 19.68Q85.47 20.38 85.04 21.02L85.04 21.02L85.04 21.02Q84.60 21.66 83.90 22.13L83.90 22.13L83.90 22.13Q83.19 22.60 82.40 22.83L82.40 22.83L83.31 23.14L85.48 26.64L87.15 27.47ZM92.33 20.43L92.33 20.43Q93.25 20.43 93.99 20.91L93.99 20.91L93.99 20.91Q94.72 21.39 95.14 22.22L95.14 22.22L95.14 22.22Q95.55 23.04 95.55 24.04L95.55 24.04L95.55 24.04Q95.55 25.12 94.89 26.06L94.89 26.06L94.89 26.06Q94.23 27.01 93.25 27.57L93.25 27.57L93.25 27.57Q92.26 28.14 91.34 28.14L91.34 28.14L91.34 28.14Q90.41 28.14 89.68 27.66L89.68 27.66L89.68 27.66Q88.94 27.17 88.53 26.35L88.53 26.35L88.53 26.35Q88.12 25.52 88.12 24.53L88.12 24.53L88.12 24.53Q88.12 23.45 88.77 22.50L88.77 22.50L88.77 22.50Q89.43 21.56 90.42 20.99L90.42 20.99L90.42 20.99Q91.41 20.43 92.33 20.43L92.33 20.43ZM91.52 21.60L91.52 21.60Q89.94 21.60 89.94 23.86L89.94 23.86L89.94 23.86Q89.94 25.19 90.51 26.07L90.51 26.07L90.51 26.07Q91.08 26.96 92.15 26.96L92.15 26.96L92.15 26.96Q93.73 26.96 93.73 24.70L93.73 24.70L93.73 24.70Q93.73 23.38 93.16 22.49L93.16 22.49L93.16 22.49Q92.58 21.60 91.52 21.60L91.52 21.60ZM104.69 20.57L104.69 21L101.15 28L100.09 28L97.90 22.67L96.60 21.91L96.60 21.48L98.99 20.30L99.53 22.41L101.23 26.59L103.21 22.48L101.35 21.13L101.63 20.57L104.69 20.57ZM112.81 26.07L110.33 28.03L110.33 28.03Q109.77 28.14 108.99 28.14L108.99 28.14L108.99 28.14Q108.07 28.14 107.33 27.66L107.33 27.66L107.33 27.66Q106.60 27.17 106.18 26.35L106.18 26.35L106.18 26.35Q105.77 25.52 105.77 24.53L105.77 24.53L105.77 24.53Q105.77 23.45 106.43 22.50L106.43 22.50L106.43 22.50Q107.09 21.56 108.07 20.99L108.07 20.99L108.07 20.99Q109.06 20.43 109.98 20.43L109.98 20.43L109.98 20.43Q111.31 20.43 112.05 21.48L112.05 21.48L112.05 21.48Q112.78 22.53 112.78 24.25L112.78 24.25L107.60 24.25L107.60 24.25Q107.69 25.44 108.26 26.19L108.26 26.19L108.26 26.19Q108.82 26.95 109.80 26.95L109.80 26.95L109.80 26.95Q110.71 26.95 112.39 25.54L112.39 25.54L112.81 26.07ZM109.17 21.60L109.17 21.60Q107.66 21.60 107.59 23.67L107.59 23.67L110.87 23.67L110.87 23.67Q110.74 22.92 110.61 22.52L110.61 22.52L110.61 22.52Q110.47 22.12 110.15 21.86L110.15 21.86L110.15 21.86Q109.82 21.60 109.17 21.60L109.17 21.60ZM119.62 20.44L119.62 20.44Q120.08 20.44 120.43 20.69L120.43 20.69L120.43 20.69Q120.78 20.94 120.97 21.39L120.97 21.39L120.05 22.55L119.52 22.55L119.52 22.55Q119.46 22.20 119.31 22.06L119.31 22.06L119.31 22.06Q119.17 21.91 118.92 21.91L118.92 21.91L118.92 21.91Q118.61 21.91 118.27 22.07L118.27 22.07L118.27 22.07Q117.92 22.23 117.49 22.68L117.49 22.68L117.49 26.85L119.45 27.45L119.17 28.01L114.56 28.01L114.56 27.58L115.81 26.60L115.81 22.64L114.56 21.91L114.56 21.48L116.96 20.30L117.39 22.02L118.85 20.54L118.85 20.54Q119.14 20.43 119.62 20.43L119.62 20.43L119.62 20.44ZM130.16 20.43L130.16 20.43Q131.08 20.43 131.82 20.91L131.82 20.91L131.82 20.91Q132.55 21.39 132.97 22.22L132.97 22.22L132.97 22.22Q133.38 23.04 133.38 24.04L133.38 24.04L133.38 24.04Q133.38 25.12 132.72 26.06L132.72 26.06L132.72 26.06Q132.06 27.01 131.08 27.57L131.08 27.57L131.08 27.57Q130.09 28.14 129.16 28.14L129.16 28.14L129.16 28.14Q128.24 28.14 127.51 27.66L127.51 27.66L127.51 27.66Q126.77 27.17 126.36 26.35L126.36 26.35L126.36 26.35Q125.94 25.52 125.94 24.53L125.94 24.53L125.94 24.53Q125.94 23.45 126.60 22.50L126.60 22.50L126.60 22.50Q127.26 21.56 128.25 20.99L128.25 20.99L128.25 20.99Q129.23 20.43 130.16 20.43L130.16 20.43ZM129.35 21.60L129.35 21.60Q127.76 21.60 127.76 23.86L127.76 23.86L127.76 23.86Q127.76 25.19 128.34 26.07L128.34 26.07L128.34 26.07Q128.91 26.96 129.98 26.96L129.98 26.96L129.98 26.96Q131.56 26.96 131.56 24.70L131.56 24.70L131.56 24.70Q131.56 23.38 130.98 22.49L130.98 22.49L130.98 22.49Q130.41 21.60 129.35 21.60L129.35 21.60ZM139.89 15.64L139.89 15.64Q140.28 15.64 140.78 15.71L140.78 15.71L140.78 15.71Q141.27 15.79 141.48 15.88L141.48 15.88L141.48 18.03L140.95 18.03L140.95 18.03Q140.60 17.47 140.10 17.14L140.10 17.14L140.10 17.14Q139.59 16.81 139.08 16.81L139.08 16.81L139.08 16.81Q138.43 16.81 138.10 17.39L138.10 17.39L138.10 17.39Q137.77 17.96 137.77 19.07L137.77 19.07L137.77 20.99L140.29 20.99L140.29 21.56L137.77 21.56L137.77 26.84L139.73 27.44L139.45 28L134.85 28L134.85 27.57L136.09 26.59L136.09 21.56L134.43 21.56L134.43 20.99L136.09 20.99L136.09 19.74L136.09 19.74Q136.09 18.66 136.68 17.71L136.68 17.71L136.68 17.71Q137.27 16.76 138.16 16.20L138.16 16.20L138.16 16.20Q139.05 15.64 139.89 15.64L139.89 15.64ZM151.16 25.52L151.16 25.52Q151.16 25.09 150.81 24.71L150.81 24.71L150.81 24.71Q150.46 24.33 149.93 24.02L149.93 24.02L149.93 24.02Q149.41 23.70 148.51 23.24L148.51 23.24L148.51 23.24Q147.45 22.68 146.80 22.28L146.80 22.28L146.80 22.28Q146.16 21.88 145.70 21.34L145.70 21.34L145.70 21.34Q145.25 20.79 145.25 20.13L145.25 20.13L145.25 20.13Q145.25 19.43 145.84 18.63L145.84 18.63L145.84 18.63Q146.43 17.82 147.27 17.27L147.27 17.27L147.27 17.27Q148.12 16.72 148.83 16.72L148.83 16.72L148.83 16.72Q149.70 16.72 150.85 16.93L150.85 16.93L150.85 16.93Q152.00 17.14 152.53 17.37L152.53 17.37L152.53 20.09L152.00 20.09L152.00 20.09Q151.31 18.96 150.49 18.33L150.49 18.33L150.49 18.33Q149.67 17.70 148.78 17.70L148.78 17.70L148.78 17.70Q147.98 17.70 147.51 18.19L147.51 18.19L147.51 18.19Q147.04 18.69 147.04 19.49L147.04 19.49L147.04 19.49Q147.04 19.95 147.40 20.35L147.40 20.35L147.40 20.35Q147.76 20.75 148.28 21.06L148.28 21.06L148.28 21.06Q148.81 21.36 149.74 21.85L149.74 21.85L149.74 21.85Q150.78 22.37 151.42 22.77L151.42 22.77L151.42 22.77Q152.07 23.17 152.51 23.70L152.51 23.70L152.51 23.70Q152.95 24.22 152.95 24.88L152.95 24.88L152.95 24.88Q152.95 25.58 152.32 26.38L152.32 26.38L152.32 26.38Q151.69 27.19 150.79 27.74L150.79 27.74L150.79 27.74Q149.88 28.29 149.14 28.29L149.14 28.29L149.14 28.29Q148.23 28.29 146.98 28.08L146.98 28.08L146.98 28.08Q145.73 27.87 145.18 27.64L145.18 27.64L145.18 24.92L145.71 24.92L145.71 24.92Q146.43 26.05 147.34 26.68L147.34 26.68L147.34 26.68Q148.25 27.31 149.21 27.31L149.21 27.31L149.21 27.31Q149.79 27.31 150.23 27.06L150.23 27.06L150.23 27.06Q150.68 26.81 150.92 26.40L150.92 26.40L150.92 26.40Q151.16 25.98 151.16 25.52L151.16 25.52ZM160.10 26.91L158.69 28.03L158.69 28.03Q158.37 28.14 157.91 28.14L157.91 28.14L157.91 28.14Q156.74 28.14 156.21 27.53L156.21 27.53L156.21 27.53Q155.67 26.92 155.67 25.65L155.67 25.65L155.67 21.56L154.15 21.56L154.15 20.99L156.81 17.89L157.35 17.89L157.35 20.99L159.87 20.99L159.87 21.56L157.35 21.56L157.35 25.82L157.35 25.82Q157.35 26.95 158.44 26.95L158.44 26.95L158.44 26.95Q158.73 26.95 159.00 26.82L159.00 26.82L159.00 26.82Q159.28 26.70 159.68 26.38L159.68 26.38L160.10 26.91ZM168.66 27.44L168.38 28L165.72 28L165.72 26.78L164.14 28.03L164.14 28.03Q163.86 28.14 163.44 28.14L163.44 28.14L163.44 28.14Q162.23 28.14 161.69 27.54L161.69 27.54L161.69 27.54Q161.15 26.94 161.15 26.10L161.15 26.10L161.15 26.10Q161.15 25.59 161.52 25.10L161.52 25.10L161.52 25.10Q161.88 24.61 162.55 24.18L162.55 24.18L165.72 24.18L165.72 23.28L165.72 23.28Q165.72 22.37 165.24 21.99L165.24 21.99L165.24 21.99Q164.75 21.62 163.91 21.62L163.91 21.62L163.91 21.62Q163.04 21.62 161.78 22.67L161.78 22.67L161.36 22.13L163.38 20.54L163.38 20.54Q163.94 20.43 164.72 20.43L164.72 20.43L164.72 20.43Q166.00 20.43 166.70 21.05L166.70 21.05L166.70 21.05Q167.40 21.67 167.40 22.86L167.40 22.86L167.40 26.95L168.66 27.44ZM163.88 26.95L163.88 26.95Q164.74 26.95 165.72 26.17L165.72 26.17L165.72 24.75L163.24 24.75L163.24 24.75Q163.06 24.98 162.98 25.20L162.98 25.20L162.98 25.20Q162.90 25.42 162.90 25.69L162.90 25.69L162.90 25.69Q162.90 26.21 163.17 26.58L163.17 26.58L163.17 26.58Q163.44 26.95 163.88 26.95L163.88 26.95ZM183.22 27.44L182.94 28L180.28 28L180.28 23.28L180.28 23.28Q180.28 22.51 180.04 22.20L180.04 22.20L180.04 22.20Q179.80 21.90 179.19 21.90L179.19 21.90L179.19 21.90Q178.75 21.90 178.33 22.06L178.33 22.06L178.33 22.06Q177.91 22.22 177.34 22.69L177.34 22.69L177.34 26.95L178.60 27.44L178.32 28L175.66 28L175.66 23.28L175.66 23.28Q175.66 22.51 175.42 22.20L175.42 22.20L175.42 22.20Q175.18 21.90 174.57 21.90L174.57 21.90L174.57 21.90Q174.13 21.90 173.71 22.06L173.71 22.06L173.71 22.06Q173.29 22.22 172.72 22.69L172.72 22.69L172.72 26.95L173.98 27.44L173.70 28L169.79 28L169.79 27.57L171.04 26.59L171.04 22.62L169.79 21.90L169.79 21.46L172.19 20.29L172.63 22.08L174.50 20.52L174.50 20.52Q174.79 20.41 175.27 20.41L175.27 20.41L175.27 20.41Q176.08 20.41 176.61 20.85L176.61 20.85L176.61 20.85Q177.14 21.29 177.28 22.06L177.28 22.06L179.10 20.54L179.10 20.54Q179.40 20.43 179.87 20.43L179.87 20.43L179.87 20.43Q180.82 20.43 181.38 21.01L181.38 21.01L181.38 21.01Q181.94 21.59 181.94 22.58L181.94 22.58L181.94 26.95L183.22 27.44ZM189.36 15.64L189.36 15.64Q189.76 15.64 190.25 15.71L190.25 15.71L190.25 15.71Q190.75 15.79 190.96 15.88L190.96 15.88L190.96 18.03L190.43 18.03L190.43 18.03Q190.08 17.47 189.57 17.14L189.57 17.14L189.57 17.14Q189.07 16.81 188.55 16.81L188.55 16.81L188.55 16.81Q187.91 16.81 187.58 17.39L187.58 17.39L187.58 17.39Q187.25 17.96 187.25 19.07L187.25 19.07L187.25 20.99L189.77 20.99L189.77 21.56L187.25 21.56L187.25 26.84L189.21 27.44L188.93 28L184.32 28L184.32 27.57L185.57 26.59L185.57 21.56L183.90 21.56L183.90 20.99L185.57 20.99L185.57 19.74L185.57 19.74Q185.57 18.66 186.16 17.71L186.16 17.71L186.16 17.71Q186.75 16.76 187.63 16.20L187.63 16.20L187.63 16.20Q188.52 15.64 189.36 15.64L189.36 15.64ZM194.75 20.43L194.75 20.43Q195.68 20.43 196.41 20.91L196.41 20.91L196.41 20.91Q197.15 21.39 197.56 22.22L197.56 22.22L197.56 22.22Q197.97 23.04 197.97 24.04L197.97 24.04L197.97 24.04Q197.97 25.12 197.32 26.06L197.32 26.06L197.32 26.06Q196.66 27.01 195.67 27.57L195.67 27.57L195.67 27.57Q194.68 28.14 193.76 28.14L193.76 28.14L193.76 28.14Q192.84 28.14 192.10 27.66L192.10 27.66L192.10 27.66Q191.37 27.17 190.95 26.35L190.95 26.35L190.95 26.35Q190.54 25.52 190.54 24.53L190.54 24.53L190.54 24.53Q190.54 23.45 191.20 22.50L191.20 22.50L191.20 22.50Q191.86 21.56 192.84 20.99L192.84 20.99L192.84 20.99Q193.83 20.43 194.75 20.43L194.75 20.43ZM193.94 21.60L193.94 21.60Q192.36 21.60 192.36 23.86L192.36 23.86L192.36 23.86Q192.36 25.19 192.93 26.07L192.93 26.07L192.93 26.07Q193.51 26.96 194.57 26.96L194.57 26.96L194.57 26.96Q196.15 26.96 196.15 24.70L196.15 24.70L196.15 24.70Q196.15 23.38 195.58 22.49L195.58 22.49L195.58 22.49Q195.01 21.60 193.94 21.60L193.94 21.60ZM204.78 20.44L204.78 20.44Q205.24 20.44 205.59 20.69L205.59 20.69L205.59 20.69Q205.94 20.94 206.14 21.39L206.14 21.39L205.21 22.55L204.68 22.55L204.68 22.55Q204.62 22.20 204.48 22.06L204.48 22.06L204.48 22.06Q204.33 21.91 204.08 21.91L204.08 21.91L204.08 21.91Q203.77 21.91 203.43 22.07L203.43 22.07L203.43 22.07Q203.08 22.23 202.65 22.68L202.65 22.68L202.65 26.85L204.61 27.45L204.33 28.01L199.72 28.01L199.72 27.58L200.97 26.60L200.97 22.64L199.72 21.91L199.72 21.48L202.12 20.30L202.55 22.02L204.01 20.54L204.01 20.54Q204.30 20.43 204.78 20.43L204.78 20.43L204.78 20.44ZM215.73 27.44L215.45 28L212.79 28L212.79 26.99L211.48 28.03L211.48 28.03Q211.04 28.14 210.41 28.14L210.41 28.14L210.41 28.14Q209.48 28.14 208.75 27.66L208.75 27.66L208.75 27.66Q208.01 27.17 207.60 26.35L207.60 26.35L207.60 26.35Q207.19 25.52 207.19 24.53L207.19 24.53L207.19 24.53Q207.19 23.45 207.84 22.50L207.84 22.50L207.84 22.50Q208.50 21.56 209.49 20.99L209.49 20.99L209.49 20.99Q210.48 20.43 211.40 20.43L211.40 20.43L211.40 20.43Q212.17 20.43 212.80 20.86L212.80 20.86L212.80 17.98L211.55 17.11L211.55 16.67L213.95 15.78L214.48 15.78L214.48 26.95L215.73 27.44ZM211.12 26.95L211.12 26.95Q211.54 26.95 211.93 26.83L211.93 26.83L211.93 26.83Q212.31 26.71 212.79 26.38L212.79 26.38L212.79 23.18L212.79 23.18Q212.70 22.48 212.13 22.04L212.13 22.04L212.13 22.04Q211.57 21.60 210.59 21.60L210.59 21.60L210.59 21.60Q209.01 21.60 209.01 23.86L209.01 23.86L209.01 23.86Q209.01 25.17 209.55 26.06L209.55 26.06L209.55 26.06Q210.10 26.95 211.12 26.95L211.12 26.95Z"></path></g><defs data-v-fde0c5aa=""><!----></defs><g data-v-fde0c5aa="" id="3f7ff667-ac3b-4344-93c4-570b1bb8f458" stroke="none" fill="#288B58" transform="matrix(0.6255036969865855,0,0,0.6255036969865855,36.684830286665736,134.24078112738852)"><style>.st0{fill:none;stroke:#000;stroke-miterlimit:10}</style><path class="st0" d="M5.3 22.4l20.5 9.8L44 22.4 24.6 12.3z"></path><path class="st0" d="M14.5 27v7s9.5 9.2 20.9 0M41.5 24v5"></path><circle class="st0" cx="41.2" cy="30.4" r="1.7"></circle></g><!----></svg>