<svg data-v-423bf9ae="" xmlns="http://www.w3.org/2000/svg" viewBox="0 0 745.424652418396 163" class="iconAbove"><!----><!----><!----><g data-v-423bf9ae="" id="5d24f7da-d84a-43a4-b6af-e2e7cfd240cb" fill="#041F57" transform="matrix(5.4794516730146245,0,0,5.4794516730146245,-4.273971115483448,83.43836003889786)"><path d="M4.38 14.52C6.57 14.52 7.85 13.26 7.85 11.52C7.85 9.88 6.76 9.02 4.93 8.58L4.27 8.44C2.94 8.12 2.41 7.69 2.41 6.79C2.41 5.95 3.02 5.31 4.33 5.31C5.71 5.31 6.36 5.80 6.36 6.75L6.36 7.36L7.71 7.36L7.71 4.58L6.36 4.58L6.36 5.35L6.27 5.35C6.02 4.84 5.32 4.41 4.20 4.41C2.20 4.41 0.94 5.52 0.94 7.13C0.94 8.92 2.11 9.77 3.96 10.19L4.68 10.36C5.89 10.64 6.34 11.09 6.34 11.97C6.34 12.96 5.68 13.62 4.20 13.62C2.80 13.62 2.14 13.06 2.14 12.11L2.14 11.49L0.78 11.49L0.78 14.35L2.14 14.35L2.14 13.52L2.21 13.52C2.48 14.06 3.23 14.52 4.38 14.52ZM11.63 14.46C12.45 14.46 13.24 14.32 13.57 14.17L13.57 13.51L11.79 13.51L11.79 7.92L13.57 7.92L13.57 7.07L11.79 7.07L11.79 5.12L10.92 5.12L10.46 6.36C10.28 6.83 10.11 7.07 9.38 7.07L9.14 7.07L9.14 7.92L10.11 7.92L10.11 13.03C10.11 14.03 10.53 14.46 11.63 14.46ZM16.69 14.52C18.00 14.52 18.52 13.89 18.80 13.27L18.87 13.27L18.87 13.30C18.87 14.01 19.28 14.52 20.17 14.52C20.66 14.52 21.13 14.39 21.39 14.24L21.39 13.58L20.43 13.58L20.43 9.27C20.43 7.78 19.47 6.90 17.70 6.90C15.76 6.90 14.74 7.76 14.74 8.64C14.74 9.20 15.11 9.56 15.67 9.56C16.23 9.56 16.59 9.20 16.59 8.64C16.59 8.23 16.35 8.02 16.14 7.92L16.14 7.87C16.39 7.76 16.76 7.67 17.18 7.67C18.26 7.67 18.75 8.29 18.75 9.41L18.75 10.33L17.74 10.33C15.43 10.33 14.45 11.07 14.45 12.49C14.45 13.75 15.22 14.52 16.69 14.52ZM17.36 13.50C16.62 13.50 16.16 13.17 16.16 12.53L16.16 12.28C16.16 11.48 16.63 11.05 17.91 11.05L18.75 11.05L18.75 12.28C18.75 13.13 18.16 13.50 17.36 13.50ZM22.44 14.35L26.00 14.35L26.00 13.57L25.09 13.57L25.09 9.27C25.09 8.41 25.82 8.01 26.57 8.01C27.52 8.01 27.96 8.55 27.96 9.70L27.96 13.57L27.05 13.57L27.05 14.35L30.55 14.35L30.55 13.57L29.64 13.57L29.64 9.27C29.64 8.41 30.37 8.01 31.12 8.01C32.07 8.01 32.51 8.55 32.51 9.70L32.51 13.57L31.60 13.57L31.60 14.35L35.15 14.35L35.15 13.57L34.19 13.57L34.19 9.62C34.19 7.81 33.52 6.90 31.75 6.90C30.49 6.90 29.81 7.62 29.51 8.30L29.46 8.30C29.18 7.38 28.45 6.90 27.19 6.90C26.03 6.90 25.37 7.56 25.12 8.22L25.05 8.22L25.05 6.90L22.44 7.42L22.44 8.06L23.41 8.25L23.41 13.57L22.44 13.57ZM36.15 14.35L40.04 14.35L40.04 13.57L38.79 13.57L38.79 7.92L40.32 7.92L40.32 7.07L38.79 7.07L38.79 5.82C38.79 4.77 39.17 4.24 39.93 4.24C40.08 4.24 40.25 4.26 40.35 4.28L40.35 4.33C40.14 4.42 39.97 4.63 39.97 4.98C39.97 5.40 40.28 5.77 40.81 5.77C41.33 5.77 41.68 5.39 41.68 4.86C41.68 4.10 41.03 3.57 39.84 3.57C38.19 3.57 37.11 4.55 37.11 6.09L37.11 7.07L36.15 7.07L36.15 7.92L37.11 7.92L37.11 13.57L36.15 13.57ZM44.72 13.65C43.57 13.65 43.04 12.88 43.04 11.73L43.04 9.69C43.04 8.54 43.57 7.77 44.72 7.77C45.86 7.77 46.40 8.54 46.40 9.69L46.40 11.73C46.40 12.88 45.86 13.65 44.72 13.65ZM44.72 14.52C46.82 14.52 48.23 13.06 48.23 10.71C48.23 8.36 46.82 6.90 44.72 6.90C42.62 6.90 41.20 8.36 41.20 10.71C41.20 13.06 42.62 14.52 44.72 14.52ZM49.43 14.35L53.33 14.35L53.33 13.57L52.08 13.57L52.08 9.24C52.08 8.55 52.82 7.76 53.52 7.76C53.65 7.76 53.72 7.77 53.77 7.78L53.79 7.83C53.61 7.87 53.44 8.11 53.44 8.43C53.44 8.89 53.80 9.25 54.40 9.25C55.01 9.25 55.37 8.86 55.37 8.19C55.37 7.38 54.80 6.90 53.91 6.90C52.92 6.90 52.37 7.53 52.11 8.20L52.04 8.20L52.04 6.90L49.43 7.42L49.43 8.06L50.40 8.25L50.40 13.57L49.43 13.57ZM59.18 14.52C60.30 14.52 60.97 13.94 61.25 13.27L61.32 13.27L61.32 14.52L63.97 14L63.97 13.36L63 13.17L63 3.57L60.35 4.09L60.35 4.73L61.32 4.91L61.32 8.15L61.25 8.15C60.96 7.48 60.30 6.90 59.18 6.90C57.34 6.90 56.18 8.33 56.18 10.71C56.18 13.09 57.34 14.52 59.18 14.52ZM59.71 13.47C58.66 13.47 57.97 12.71 57.97 11.48L57.97 9.94C57.97 8.71 58.66 7.95 59.71 7.95C60.55 7.95 61.32 8.46 61.32 9.30L61.32 12.12C61.32 12.96 60.55 13.47 59.71 13.47ZM68.33 14.35L75.67 14.35L75.67 11.66L74.31 11.66L74.31 13.48L71.15 13.48L71.15 5.36L72.18 5.36L72.18 4.58L68.33 4.58L68.33 5.36L69.37 5.36L69.37 13.57L68.33 13.57ZM80.42 14.52C82.12 14.52 83.09 13.48 83.44 12.53L82.80 12.15C82.46 12.85 81.83 13.37 80.74 13.37C79.52 13.37 78.72 12.56 78.72 11.16L78.72 10.71L83.59 10.71L83.59 10.30C83.59 8.27 82.35 6.90 80.32 6.90C78.32 6.90 76.90 8.40 76.90 10.71C76.90 12.95 78.18 14.52 80.42 14.52ZM78.72 9.74C78.72 8.44 79.30 7.73 80.33 7.73C81.35 7.73 81.86 8.47 81.86 9.77L81.86 9.94L78.72 9.94ZM87.09 14.52C88.41 14.52 88.93 13.89 89.21 13.27L89.28 13.27L89.28 13.30C89.28 14.01 89.68 14.52 90.58 14.52C91.07 14.52 91.53 14.39 91.80 14.24L91.80 13.58L90.83 13.58L90.83 9.27C90.83 7.78 89.88 6.90 88.10 6.90C86.17 6.90 85.15 7.76 85.15 8.64C85.15 9.20 85.51 9.56 86.07 9.56C86.63 9.56 87.00 9.20 87.00 8.64C87.00 8.23 86.76 8.02 86.55 7.92L86.55 7.87C86.80 7.76 87.16 7.67 87.58 7.67C88.66 7.67 89.15 8.29 89.15 9.41L89.15 10.33L88.14 10.33C85.83 10.33 84.85 11.07 84.85 12.49C84.85 13.75 85.62 14.52 87.09 14.52ZM87.77 13.50C87.02 13.50 86.56 13.17 86.56 12.53L86.56 12.28C86.56 11.48 87.04 11.05 88.31 11.05L89.15 11.05L89.15 12.28C89.15 13.13 88.56 13.50 87.77 13.50ZM92.85 14.35L96.74 14.35L96.74 13.57L95.49 13.57L95.49 9.24C95.49 8.55 96.24 7.76 96.94 7.76C97.06 7.76 97.13 7.77 97.19 7.78L97.20 7.83C97.02 7.87 96.85 8.11 96.85 8.43C96.85 8.89 97.22 9.25 97.82 9.25C98.42 9.25 98.78 8.86 98.78 8.19C98.78 7.38 98.21 6.90 97.33 6.90C96.33 6.90 95.79 7.53 95.52 8.20L95.45 8.20L95.45 6.90L92.85 7.42L92.85 8.06L93.81 8.25L93.81 13.57L92.85 13.57ZM99.55 14.35L103.14 14.35L103.14 13.57L102.20 13.57L102.20 9.27C102.20 8.40 102.98 8.01 103.73 8.01C104.73 8.01 105.17 8.55 105.17 9.70L105.17 13.57L104.23 13.57L104.23 14.35L107.81 14.35L107.81 13.57L106.85 13.57L106.85 9.62C106.85 7.81 106.16 6.90 104.36 6.90C103.17 6.90 102.47 7.57 102.23 8.22L102.16 8.22L102.16 6.90L99.55 7.42L99.55 8.06L100.52 8.25L100.52 13.57L99.55 13.57ZM108.93 14.35L112.78 14.35L112.78 13.57L111.75 13.57L111.75 9.79L116.17 9.79L116.17 13.57L115.14 13.57L115.14 14.35L118.99 14.35L118.99 13.57L117.95 13.57L117.95 5.36L118.99 5.36L118.99 4.58L115.14 4.58L115.14 5.36L116.17 5.36L116.17 8.92L111.75 8.92L111.75 5.36L112.78 5.36L112.78 4.58L108.93 4.58L108.93 5.36L109.97 5.36L109.97 13.57L108.93 13.57ZM123.49 14.52C124.68 14.52 125.38 13.85 125.62 13.20L125.69 13.20L125.69 14.52L128.30 14L128.30 13.36L127.33 13.17L127.33 6.90L124.68 7.42L124.68 8.06L125.65 8.25L125.65 12.17C125.65 13.02 124.87 13.41 124.12 13.41C123.12 13.41 122.68 12.87 122.68 11.70L122.68 6.90L120.05 7.42L120.05 8.06L121.00 8.25L121.00 11.79C121.00 13.61 121.69 14.52 123.49 14.52ZM133.83 14.52C135.66 14.52 136.82 13.09 136.82 10.71C136.82 8.33 135.66 6.90 133.83 6.90C132.71 6.90 132.05 7.48 131.75 8.15L131.68 8.15L131.68 3.57L129.04 4.09L129.04 4.73L130.00 4.91L130.00 14.35L130.73 14.35L131.59 13.24L131.66 13.24C131.94 13.93 132.71 14.52 133.83 14.52ZM133.29 13.47C132.45 13.47 131.68 12.96 131.68 12.12L131.68 9.30C131.68 8.46 132.45 7.95 133.29 7.95C134.34 7.95 135.03 8.71 135.03 9.94L135.03 11.48C135.03 12.71 134.34 13.47 133.29 13.47Z"></path></g><defs data-v-423bf9ae=""><linearGradient data-v-423bf9ae="" gradientTransform="rotate(25)" id="bf8f2f75-0ea9-4161-afe6-1a9c15ff18c2" x1="0%" y1="0%" x2="100%" y2="0%"><stop data-v-423bf9ae="" offset="0%" style="stop-color: rgb(0, 21, 214); stop-opacity: 1;"></stop><stop data-v-423bf9ae="" offset="100%" style="stop-color: rgb(9, 137, 251); stop-opacity: 1;"></stop></linearGradient></defs><g data-v-423bf9ae="" id="5877da11-bef1-42ff-81e5-95a1ddee3f9f" transform="matrix(3.4898747900088205,0,0,3.4898747900088205,287.2745788980492,-42.62546039201442)" stroke="none" fill="url(#bf8f2f75-0ea9-4161-afe6-1a9c15ff18c2)"><style>.st0{fill:none;stroke:#000;stroke-miterlimit:10}</style><path class="st0" d="M5.3 22.4l20.5 9.8L44 22.4 24.6 12.3z"></path><path class="st0" d="M14.5 27v7s9.5 9.2 20.9 0M41.5 24v5"></path><circle class="st0" cx="41.2" cy="30.4" r="1.7"></circle></g><!----></svg>